<?xml version="1.0" standalone="no"?>
<!DOCTYPE svg PUBLIC "-//W3C//DTD SVG 20010904//EN"
 "http://www.w3.org/TR/2001/REC-SVG-20010904/DTD/svg10.dtd">
<svg version="1.0" xmlns="http://www.w3.org/2000/svg"
 width="689.000000pt" height="362.000000pt" viewBox="0 0 689.000000 362.000000"
 preserveAspectRatio="xMidYMid meet">

<g transform="translate(0.000000,362.000000) scale(0.100000,-0.100000)"
fill="#000000" stroke="none">
<path d="M2002 2837 c-37 -104 -194 -293 -373 -452 -438 -388 -583 -566 -624
-760 -20 -97 -19 -167 6 -266 30 -118 71 -192 157 -278 127 -126 275 -177 492
-169 91 4 132 11 198 33 l82 28 0 274 0 274 -30 5 -29 6 47 69 c26 38 50 69
53 69 10 0 98 -138 92 -144 -4 -3 -15 -6 -25 -6 -17 0 -18 -15 -18 -289 l0
-290 -30 -21 c-168 -120 -476 -134 -695 -31 -148 69 -232 142 -418 361 l-38
45 26 -60 c97 -221 210 -345 381 -421 221 -98 533 -102 711 -10 61 32 86 52
118 95 25 35 25 36 25 251 0 234 9 291 52 337 13 14 33 29 46 34 23 9 23 9
-25 76 -135 193 -190 266 -198 267 -4 1 -61 -74 -126 -166 l-118 -167 37 -18
c60 -29 84 -88 80 -193 -4 -97 -19 -136 -64 -162 -106 -62 -253 -10 -314 110
-54 106 -46 237 21 370 33 66 70 113 185 238 164 179 245 292 298 416 48 114
66 200 65 323 0 89 -18 238 -31 250 -2 2 -9 -10 -16 -28z"/>
<path d="M2655 1921 c-138 -62 -152 -261 -25 -335 28 -17 52 -21 115 -21 44 1
90 6 103 13 20 12 22 20 22 102 l0 90 -75 0 -75 0 0 -30 c0 -28 3 -30 35 -30
34 0 35 -1 35 -40 0 -34 -4 -41 -25 -46 -80 -20 -155 61 -138 150 15 80 80
117 172 99 l51 -10 0 32 c0 25 -5 34 -22 39 -45 12 -133 5 -173 -13z"/>
<path d="M2950 1755 l0 -185 110 0 110 0 0 30 0 30 -70 0 -70 0 0 155 0 155
-40 0 -40 0 0 -185z"/>
<path d="M3292 1914 c-57 -34 -86 -90 -87 -170 0 -79 35 -136 102 -166 146
-64 286 61 251 225 -25 120 -158 176 -266 111z m155 -54 c1 0 9 -13 18 -30 19
-37 19 -122 0 -159 -16 -33 -33 -41 -80 -41 -18 0 -41 3 -50 6 -44 17 -62 131
-31 192 19 37 65 53 111 40 16 -4 31 -8 32 -8z"/>
<path d="M3630 1755 l0 -185 40 0 40 0 0 71 0 70 28 -3 c21 -2 37 -18 71 -70
42 -65 46 -68 83 -68 21 0 38 4 38 8 0 12 -79 124 -98 141 -13 10 -14 14 -4
18 64 24 92 109 51 157 -29 33 -78 45 -176 46 l-73 0 0 -185z m168 109 c47
-33 15 -94 -50 -94 l-38 0 0 55 0 55 33 0 c18 0 43 -7 55 -16z"/>
<path d="M3960 1910 c0 -20 5 -30 15 -30 13 0 15 -21 15 -125 0 -102 -3 -127
-15 -131 -8 -4 -15 -17 -15 -30 0 -23 3 -24 70 -24 68 0 70 1 70 25 0 15 -6
25 -14 25 -12 0 -15 24 -18 127 -3 113 -1 127 15 131 11 3 17 14 17 33 l0 29
-70 0 -70 0 0 -30z"/>
<path d="M4255 1930 c-4 -6 -10 -23 -15 -38 -5 -15 -31 -89 -59 -166 -28 -76
-51 -142 -51 -147 0 -5 17 -9 38 -9 37 0 40 2 51 40 l12 41 71 -3 71 -3 12
-35 c11 -32 16 -35 53 -38 41 -3 41 -3 33 25 -7 23 -62 177 -113 316 -9 24
-15 27 -53 27 -24 0 -47 -5 -50 -10z m95 -212 c0 -5 -23 -8 -51 -8 -40 0 -50
3 -46 14 3 8 11 34 17 57 27 101 29 102 56 19 13 -41 24 -78 24 -82z"/>
<path d="M4690 1756 l0 -186 95 0 c133 0 175 24 175 100 0 40 -24 76 -56 84
l-25 7 36 33 c37 36 41 51 24 89 -17 37 -54 50 -156 55 l-93 4 0 -186z m159
115 c16 -10 18 -58 3 -73 -12 -12 -81 -17 -82 -5 0 4 0 25 0 47 0 38 1 40 33
40 17 0 38 -4 46 -9z m9 -157 c48 -33 13 -94 -54 -94 -31 0 -32 1 -36 51 -1
28 -1 53 1 55 10 10 69 3 89 -12z"/>
<path d="M5116 1893 c-26 -71 -51 -138 -85 -230 -17 -45 -31 -85 -31 -88 0 -3
19 -5 42 -3 40 3 43 5 51 41 l9 37 72 0 73 0 12 -40 c11 -38 14 -40 51 -40 22
0 40 4 40 8 0 4 -19 59 -41 122 -23 63 -51 143 -62 178 l-21 62 -47 0 c-46 0
-46 0 -63 -47z m89 -107 l23 -76 -53 0 -54 0 14 41 c8 22 19 59 25 81 6 22 14
38 16 35 3 -3 16 -39 29 -81z"/>
<path d="M5380 1905 l0 -35 50 0 50 0 0 -150 0 -150 40 0 40 0 0 150 0 150 55
0 55 0 0 35 0 35 -145 0 -145 0 0 -35z"/>
<path d="M5730 1756 l0 -186 40 0 40 0 0 75 0 75 80 0 80 0 0 -75 0 -75 40 0
40 0 0 185 0 185 -40 0 -40 0 0 -75 0 -75 -82 0 -83 0 0 72 0 73 -37 3 -38 3
0 -185z"/>
<path d="M2603 1363 c9 -2 23 -2 30 0 6 3 -1 5 -18 5 -16 0 -22 -2 -12 -5z"/>
<path d="M3983 1295 c0 -44 2 -61 4 -37 2 23 2 59 0 80 -2 20 -4 1 -4 -43z"/>
<path d="M4100 1300 l0 -70 43 0 c45 0 67 13 66 40 0 9 -4 6 -9 -7 -8 -19 -17
-23 -50 -23 l-40 0 0 60 0 60 33 0 c18 0 39 -6 47 -12 12 -11 12 -10 1 5 -9
11 -27 17 -52 17 l-39 0 0 -70z"/>
<path d="M4463 1300 c0 -41 2 -58 4 -37 2 20 2 54 0 75 -2 20 -4 3 -4 -38z"/>
<path d="M4657 1363 c-4 -3 -6 -34 -6 -67 1 -34 4 -49 6 -34 4 23 10 27 41 31
l37 4 -37 1 c-35 2 -38 4 -38 31 0 28 3 30 43 34 l42 4 -41 1 c-22 1 -44 -1
-47 -5z"/>
<path d="M5617 1363 c20 -4 22 -12 26 -71 l3 -67 2 67 c2 64 3 67 30 71 15 2
2 4 -28 4 -30 0 -45 -2 -33 -4z"/>
<path d="M3024 1293 c1 -44 5 -58 16 -59 8 0 10 1 3 3 -7 2 -14 28 -16 59 l-4
54 1 -57z"/>
<path d="M4844 1293 c1 -44 5 -58 16 -59 8 0 10 1 3 3 -7 2 -14 28 -16 59 l-4
54 1 -57z"/>
<path d="M4923 1300 c0 -30 2 -43 4 -27 2 15 2 39 0 55 -2 15 -4 2 -4 -28z"/>
<path d="M5503 1270 c0 -41 2 -58 4 -37 2 20 2 54 0 75 -2 20 -4 3 -4 -38z"/>
<path d="M2756 1317 c3 -10 9 -15 12 -12 3 3 0 11 -7 18 -10 9 -11 8 -5 -6z"/>
<path d="M2823 1280 c0 -30 2 -43 4 -27 2 15 2 39 0 55 -2 15 -4 2 -4 -28z"/>
<path d="M2887 1323 c6 -5 14 -29 16 -53 l4 -45 -1 49 c-1 35 -5 51 -16 53
-10 3 -11 2 -3 -4z"/>
<path d="M2963 1280 c0 -30 2 -43 4 -27 2 15 2 39 0 55 -2 15 -4 2 -4 -28z"/>
<path d="M3485 1320 c3 -5 8 -10 11 -10 2 0 4 5 4 10 0 6 -5 10 -11 10 -5 0
-7 -4 -4 -10z"/>
<path d="M3656 1317 c3 -10 9 -15 12 -12 3 3 0 11 -7 18 -10 9 -11 8 -5 -6z"/>
<path d="M3720 1280 c0 -29 2 -51 4 -49 8 8 10 88 3 95 -4 4 -7 -17 -7 -46z"/>
<path d="M3868 1318 c8 -9 11 -22 7 -28 -3 -5 -1 -10 4 -10 17 0 13 26 -6 41
-16 13 -17 12 -5 -3z"/>
<path d="M4783 1285 c0 -27 2 -38 4 -22 2 15 2 37 0 50 -2 12 -4 0 -4 -28z"/>
<path d="M5060 1280 c0 -29 2 -51 4 -49 8 8 10 88 3 95 -4 4 -7 -17 -7 -46z"/>
<path d="M5137 1309 c4 -13 8 -18 11 -10 2 7 -1 18 -6 23 -8 8 -9 4 -5 -13z"/>
<path d="M5205 1320 c-3 -6 1 -7 9 -4 18 7 21 14 7 14 -6 0 -13 -4 -16 -10z"/>
<path d="M5335 1319 c-4 -6 -5 -12 -2 -15 2 -3 7 2 10 11 7 17 1 20 -8 4z"/>
<path d="M5733 1280 c0 -30 2 -43 4 -27 2 15 2 39 0 55 -2 15 -4 2 -4 -28z"/>
<path d="M5912 1308 c7 -15 15 -23 17 -17 2 6 -4 18 -13 27 -15 15 -15 15 -4
-10z"/>
<path d="M5964 1315 c-8 -19 4 -35 24 -34 14 1 14 2 -1 6 -13 3 -17 11 -14 24
6 22 -1 26 -9 4z"/>
<path d="M4543 1275 c0 -22 2 -30 4 -17 2 12 2 30 0 40 -3 9 -5 -1 -4 -23z"/>
<path d="M2634 1288 c31 -24 14 -51 -28 -46 -19 2 -32 0 -30 -4 9 -14 61 -9
75 8 14 17 3 45 -22 52 -8 2 -5 -2 5 -10z"/>
<path d="M3145 1290 l-30 -8 27 -1 c21 -1 28 -7 31 -28 3 -23 4 -21 6 10 0 20
0 36 -1 36 -2 -1 -16 -5 -33 -9z"/>
<path d="M5191 1284 c0 -11 3 -14 6 -6 3 7 2 16 -1 19 -3 4 -6 -2 -5 -13z"/>
<path d="M2728 1283 c7 -3 16 -2 19 1 4 3 -2 6 -13 5 -11 0 -14 -3 -6 -6z"/>
<path d="M3620 1286 c0 -2 11 -6 25 -8 14 -3 25 -1 25 3 0 5 -11 9 -25 9 -14
0 -25 -2 -25 -4z"/>
<path d="M3790 1279 c0 -5 5 -7 10 -4 6 3 10 8 10 11 0 2 -4 4 -10 4 -5 0 -10
-5 -10 -11z"/>
<path d="M3838 1283 c7 -3 16 -2 19 1 4 3 -2 6 -13 5 -11 0 -14 -3 -6 -6z"/>
<path d="M4283 1283 c9 -2 23 -2 30 0 6 3 -1 5 -18 5 -16 0 -22 -2 -12 -5z"/>
<path d="M5830 1279 c0 -5 5 -7 10 -4 6 3 10 8 10 11 0 2 -4 4 -10 4 -5 0 -10
-5 -10 -11z"/>
<path d="M3595 1269 c-4 -6 -5 -12 -2 -15 2 -3 7 2 10 11 7 17 1 20 -8 4z"/>
<path d="M4245 1269 c-4 -6 -5 -12 -2 -15 2 -3 7 2 10 11 7 17 1 20 -8 4z"/>
<path d="M5396 1267 c3 -10 9 -15 12 -12 3 3 0 11 -7 18 -10 9 -11 8 -5 -6z"/>
<path d="M3330 1251 c0 -6 4 -13 10 -16 6 -3 7 1 4 9 -7 18 -14 21 -14 7z"/>
<path d="M3809 1248 c14 -19 56 -24 65 -9 3 4 -6 6 -19 3 -14 -2 -33 2 -43 9
-15 13 -16 12 -3 -3z"/>
<path d="M3440 1239 c0 -5 5 -7 10 -4 6 3 10 8 10 11 0 2 -4 4 -10 4 -5 0 -10
-5 -10 -11z"/>
<path d="M3520 1239 c0 -5 5 -7 10 -4 6 3 10 8 10 11 0 2 -4 4 -10 4 -5 0 -10
-5 -10 -11z"/>
<path d="M4388 1238 c5 -5 16 -8 23 -6 8 3 3 7 -10 11 -17 4 -21 3 -13 -5z"/>
<path d="M5890 1240 c-23 -7 -23 -8 -3 -9 12 -1 25 4 28 9 3 6 5 10 3 9 -2 -1
-14 -5 -28 -9z"/>
<path d="M5995 1240 l-30 -8 27 -1 c15 0 30 4 33 9 3 6 5 9 3 9 -2 -1 -16 -5
-33 -9z"/>
<path d="M4938 1233 c7 -3 16 -2 19 1 4 3 -2 6 -13 5 -11 0 -14 -3 -6 -6z"/>
<path d="M5353 1233 c9 -2 23 -2 30 0 6 3 -1 5 -18 5 -16 0 -22 -2 -12 -5z"/>
<path d="M5275 1211 c-6 -5 -21 -11 -35 -14 l-25 -4 26 -2 c15 0 32 6 39 14
14 16 10 21 -5 6z"/>
<path d="M2577 1043 c-4 -3 -7 -73 -7 -154 0 -125 2 -148 16 -153 9 -3 782 -6
1719 -6 1535 0 1705 2 1719 16 13 12 16 40 16 144 0 71 -3 135 -6 144 -6 15
-167 16 -1728 16 -948 0 -1726 -3 -1729 -7z m323 -148 c0 -69 -3 -85 -15 -85
-12 0 -15 16 -15 85 0 69 3 85 15 85 12 0 15 -16 15 -85z m328 68 c-2 -10 -10
-18 -18 -18 -8 0 -16 8 -18 18 -2 12 3 17 18 17 15 0 20 -5 18 -17z m694 -11
c-3 -19 1 -22 30 -22 46 0 58 -15 58 -72 0 -36 -4 -48 -15 -48 -10 0 -15 10
-15 29 0 42 -9 61 -30 61 -15 0 -20 -9 -22 -42 -2 -31 -8 -44 -20 -46 -16 -3
-18 6 -18 83 0 77 2 86 18 83 11 -2 16 -11 14 -26z m488 14 c0 -8 -5 -18 -11
-22 -14 -8 -33 11 -25 25 10 16 36 13 36 -3z m798 -3 c-2 -10 -10 -18 -18 -18
-8 0 -16 8 -18 18 -2 12 3 17 18 17 15 0 20 -5 18 -17z m310 0 c-2 -10 -10
-18 -18 -18 -8 0 -16 8 -18 18 -2 12 3 17 18 17 15 0 20 -5 18 -17z m402 -69
l0 -85 -52 3 c-45 3 -54 7 -68 31 -13 24 -13 30 1 55 12 22 22 27 52 27 34 0
37 2 37 28 0 17 5 27 15 27 12 0 15 -16 15 -86z m-3104 62 c28 -21 6 -43 -26
-26 -34 18 -70 -2 -70 -38 0 -34 16 -52 47 -52 18 0 23 6 23 25 0 18 5 25 20
25 16 0 20 -7 20 -34 0 -38 -12 -46 -70 -46 -72 0 -106 85 -55 135 28 29 80
33 111 11z m774 -1 c7 -8 10 -26 8 -40 -3 -14 -1 -28 3 -31 13 -8 11 -48 -3
-62 -7 -7 -38 -12 -70 -12 l-58 0 0 80 0 80 54 0 c35 0 58 -5 66 -15z m641 -6
c5 -8 9 -28 9 -46 0 -36 -21 -53 -64 -53 -19 0 -26 -5 -26 -20 0 -13 -7 -20
-20 -20 -18 0 -20 7 -20 81 l0 81 56 -4 c33 -3 60 -11 65 -19z m839 -44 l0
-65 40 0 c29 0 40 -4 40 -15 0 -12 -13 -15 -60 -15 l-60 0 0 80 c0 73 2 80 20
80 18 0 20 -7 20 -65z m-1250 40 c0 -8 9 -15 20 -15 11 0 20 -7 20 -15 0 -8
-9 -15 -20 -15 -16 0 -20 -7 -20 -30 0 -23 4 -30 20 -30 11 0 20 -7 20 -16 0
-11 -8 -14 -32 -12 -31 3 -33 6 -36 46 -2 23 -7 42 -13 42 -5 0 -9 7 -9 15 0
8 5 15 10 15 6 0 10 7 10 15 0 8 7 15 15 15 8 0 15 -7 15 -15z m940 0 c0 -8 7
-15 15 -15 8 0 15 -7 15 -15 0 -8 -7 -15 -15 -15 -24 0 -20 -56 5 -63 33 -9
23 -29 -12 -25 -31 3 -33 6 -36 46 -2 23 -7 42 -13 42 -5 0 -9 7 -9 15 0 8 5
15 10 15 6 0 10 7 10 15 0 8 7 15 15 15 8 0 15 -7 15 -15z m836 0 c4 -8 12
-15 20 -15 8 0 14 -7 14 -15 0 -8 -7 -15 -15 -15 -10 0 -15 -10 -15 -30 0 -20
5 -30 15 -30 8 0 15 -7 15 -16 0 -11 -8 -14 -32 -12 -31 3 -33 6 -36 46 -2 23
-7 42 -13 42 -5 0 -9 7 -9 15 0 8 5 15 10 15 6 0 10 7 10 15 0 8 7 15 15 15 9
0 18 -7 21 -15z m-2552 -37 c33 -46 7 -98 -47 -98 -58 0 -88 60 -50 102 23 26
78 24 97 -4z m116 8 c0 -6 -9 -17 -20 -24 -14 -8 -20 -23 -20 -47 0 -24 -5
-35 -15 -35 -12 0 -15 13 -15 59 l0 59 35 0 c20 0 35 -5 35 -12z m70 -46 c0
-53 -2 -60 -20 -60 -18 0 -20 7 -20 60 0 53 2 60 20 60 18 0 20 -7 20 -60z
m130 41 c5 -11 10 -38 10 -60 l0 -41 -49 0 c-55 0 -66 9 -57 46 5 20 13 24 42
24 23 0 33 4 28 11 -3 6 -19 9 -35 7 -16 -3 -30 1 -33 8 -7 18 4 24 45 24 28
0 41 -5 49 -19z m380 -7 c6 -14 10 -41 10 -60 l0 -35 -52 3 c-51 3 -53 4 -53
33 0 27 4 30 33 33 17 2 32 8 32 14 0 6 -13 8 -30 6 -17 -3 -33 -1 -36 4 -11
17 8 28 47 28 33 0 41 -4 49 -26z m610 12 c0 -7 -9 -16 -20 -19 -16 -4 -20
-14 -20 -46 0 -34 -3 -41 -20 -41 -18 0 -20 7 -20 60 l0 60 40 0 c27 0 40 -4
40 -14z m60 -46 c0 -47 -3 -60 -15 -60 -12 0 -15 13 -15 60 0 47 3 60 15 60
12 0 15 -13 15 -60z m72 23 l15 -38 17 38 c9 20 23 37 31 37 19 0 19 1 -6 -65
-28 -74 -49 -74 -83 1 -31 67 -31 64 -7 64 12 0 23 -13 33 -37z m196 12 c7
-14 12 -41 12 -60 l0 -35 -50 0 c-37 0 -52 4 -59 18 -14 27 5 52 39 52 17 0
30 5 30 11 0 7 -12 9 -30 7 -17 -3 -33 -1 -36 4 -10 16 8 28 45 28 31 0 40 -5
49 -25z m244 8 c10 -9 18 -24 18 -35 0 -15 -8 -18 -46 -18 -29 0 -43 -4 -39
-11 4 -6 21 -9 38 -7 23 2 32 -1 32 -12 0 -10 -13 -16 -42 -18 -33 -2 -44 1
-57 20 -20 28 -20 48 0 76 18 27 69 30 96 5z m288 -43 c0 -53 -2 -60 -20 -60
-18 0 -20 7 -20 60 0 53 2 60 20 60 18 0 20 -7 20 -60z m228 -2 c2 -47 0 -58
-13 -58 -11 0 -15 11 -15 40 0 28 -5 43 -16 47 -21 8 -34 -13 -34 -54 0 -23
-5 -33 -15 -33 -10 0 -15 10 -15 33 0 41 -13 62 -34 54 -11 -4 -16 -19 -16
-47 0 -33 -3 -40 -20 -40 -18 0 -20 7 -20 60 l0 60 98 -3 97 -2 3 -57z m82 2
c0 -53 -2 -60 -20 -60 -18 0 -20 7 -20 60 0 53 2 60 20 60 18 0 20 -7 20 -60z
m232 43 c10 -9 18 -24 18 -35 0 -14 -8 -18 -40 -18 -22 0 -40 -5 -40 -11 0 -6
14 -9 33 -7 23 2 32 -1 32 -12 0 -23 -76 -26 -92 -4 -45 62 33 138 89 87z"/>
<path d="M5834 885 c-9 -23 3 -45 25 -45 25 0 34 14 26 40 -7 23 -43 27 -51 5z"/>
<path d="M3510 920 c0 -22 25 -27 50 -10 13 9 13 11 0 20 -25 17 -50 12 -50
-10z"/>
<path d="M3510 855 c0 -12 8 -16 33 -13 17 2 32 8 32 13 0 6 -15 11 -32 13
-25 3 -33 -1 -33 -13z"/>
<path d="M4156 932 c-3 -3 -6 -16 -6 -29 0 -15 6 -23 18 -23 26 0 46 16 39 33
-6 15 -42 29 -51 19z"/>
<path d="M2977 893 c-4 -3 -7 -17 -7 -30 0 -27 30 -32 50 -8 20 24 -21 61 -43
38z"/>
<path d="M3301 851 c-10 -6 -10 -10 -1 -16 7 -4 19 0 28 9 14 13 14 16 2 16
-8 0 -21 -4 -29 -9z"/>
<path d="M3675 851 c-3 -5 -1 -12 5 -16 12 -7 30 2 30 16 0 12 -27 12 -35 0z"/>
<path d="M4617 854 c-4 -4 -4 -10 -1 -15 6 -10 34 0 34 12 0 10 -24 12 -33 3z"/>
<path d="M4855 890 c-4 -6 5 -10 19 -10 14 0 26 5 26 10 0 6 -9 10 -19 10 -11
0 -23 -4 -26 -10z"/>
<path d="M5685 890 c-4 -6 7 -10 25 -10 18 0 29 4 25 10 -3 6 -15 10 -25 10
-10 0 -22 -4 -25 -10z"/>
</g>
</svg>
